<?xml version="1.0" encoding="utf-8"?>
<!-- Generator: Adobe Illustrator 21.1.0, SVG Export Plug-In . SVG Version: 6.00 Build 0)  -->
<svg version="1.1" id="Camada_1" xmlns="http://www.w3.org/2000/svg" xmlns:xlink="http://www.w3.org/1999/xlink" x="0px" y="0px"
	 viewBox="0 0 110.6 110.6" style="enable-background:new 0 0 110.6 110.6;" xml:space="preserve">
<style type="text/css">
	.st0{fill:#FFFFFF;}
</style>
<g>
	<g>
		<path class="st0" d="M17.8,68.7c0-0.9,0-2.5,0.3-4.3c3.1-0.9,5.3-2.2,6.5-3.4s4-4.6,8-10.2l2.8-3.7L3.5,27.3c0-0.3,0-0.9,0-1.2
			c0-1.9,1.2-3.4,3.4-4l32.2,20.4l3.4-3.7L69.4,35l11.8,13l6.5,19.2c-2.2,0.9-4,1.2-5.9,1.5c2.5,0.6,4.3,1.9,5.3,3.7l9.9,6.2
			l10.2,9.9l-13.3-4.9l-7.7-4.6c-1.5,2.2-3.7,3.4-7.1,3.7c-0.9,1.9-2.2,3.4-3.4,4.3c-1.2,0.9-2.8,1.5-4.3,1.5s-3.1-0.6-4.6-1.9
			c-1.5,1.2-3.1,1.9-4.9,1.9c-2.2,0-4-0.9-5.9-3.1c-4.9,1.5-9.6,2.5-13.6,3.1c-4-1.2-7.4-2.5-9.9-3.7l-9,3.4
			C19.6,82.9,17.8,76.4,17.8,68.7z M32.6,81.4c1.2,0.6,3.7,1.2,7.1,2.5c0.6,0.3,1.5,0.6,2.8,0.9c4.9-0.6,13.9-2.5,26.6-5.9
			c3.1,0.6,5.3,0.9,7.1,0.9c5.3,0,7.7-1.5,7.7-4.3c0-2.8-2.8-4.3-8.7-4.3c-1.5,0-3.4,0.3-5.9,0.6c-5.9-2.2-12.1-3.7-18.2-4.6v-5.3
			V57l-13.6-8.7l-3.1,4c-0.3,0.3-0.9,1.2-1.9,2.8c-3.7,5.6-7.7,9-11.8,10.8v2.2c0,5.3,1.2,10.5,3.7,16.1L32.6,81.4z M54.6,52
			c3.4-1.5,6.2-3.4,8.7-4.9c2.5,2.5,4.9,4.3,7.4,6.2l1.9,1.5c2.2,7.1,5.3,10.5,8.7,10.5c0.3,0,0.9,0,1.9-0.3l-4.9-15.8L67.9,38.1
			l-24.4,3.1l-2.2,2.5L54.6,52z M54.6,60.4v4c3.4,0.6,8.7,1.9,15.5,4l-15.5-9.9V60.4z M73.8,63.8c-1.5-2.2-2.8-4.6-3.4-7.1
			c-3.1-1.9-5.6-3.7-7.4-5.9c-0.9,0.6-2.2,1.5-3.7,2.2c-0.3,0.3-0.9,0.3-1.5,0.9L73.8,63.8z M62.3,85.1c1.9,0,2.8-0.9,3.1-2.5
			l-5.9,1.5C60.5,84.8,61.4,85.1,62.3,85.1z M71.6,85.1c0.6,0,1.2-0.3,1.9-0.6c0.6-0.3,1.2-0.9,2.2-1.9c-1.5,0-3.7-0.3-6.8-0.9
			l-1.5,0.6C68.5,84.2,69.7,85.1,71.6,85.1z"/>
	</g>
</g>
</svg>
